<svg id="Layer_1" data-name="Layer 1" xmlns="http://www.w3.org/2000/svg" viewBox="0 0 264 280"><defs><style>.cls-1{fill:#fff;}.cls-2{fill:#198754;}.cls-3{fill:#474747;}</style></defs><circle class="cls-1" cx="131.88" cy="134.76" r="130.67"/><path class="cls-2" d="M84.36,150.06v20.17a34.18,34.18,0,0,1-4.06,16.29,17.75,17.75,0,0,1-13.51,9.4c-5.93,1-11.28-.75-16.32-3.75A46.32,46.32,0,0,1,42,185.22a120.82,120.82,0,0,1-19.71-24.93,25.07,25.07,0,0,1-3.15-8.54,4.8,4.8,0,0,1,0-1.69,2.4,2.4,0,0,1,2.59-2.17,2.68,2.68,0,0,1,.69.17A11.3,11.3,0,0,1,27,150.91a102,102,0,0,1,8,9.25c.51.65,1,1.32,1.51,2a1.79,1.79,0,0,0,2,.79,2.08,2.08,0,0,0,1.56-1.83,12.5,12.5,0,0,0,.1-2.12q-.08-7.49-.14-15-.08-9.19-.14-18.39a6.24,6.24,0,0,1,.76-3.69A3.91,3.91,0,0,1,45,120.13a3.85,3.85,0,0,1,2.87,3.63c.06.83.09,1.66.09,2.48,0,6.91-.06,13.83.1,20.74a25.68,25.68,0,0,0,.21,3.82c.21,1.17.81,1.76,1.78,1.78a2,2,0,0,0,2-1.73,10.77,10.77,0,0,0,.11-3c-.17-2.79-.07-5.59-.1-8.38V123.06c0-1.89-.06-3.78,0-5.67a5.12,5.12,0,0,1,.76-3.12,3.81,3.81,0,0,1,4-1.75,4.13,4.13,0,0,1,3.43,3.28,6.1,6.1,0,0,1,.16,1.48V130q0,9.38.11,18.74a7.21,7.21,0,0,0,.6,2.9,1.34,1.34,0,0,0,1.25,1,1.6,1.6,0,0,0,1.46-1,5.77,5.77,0,0,0,.37-2.29c.29-5,0-10,0-15V121.28a6.69,6.69,0,0,1,.41-2.51,4,4,0,0,1,3.85-2.51A3.72,3.72,0,0,1,71.79,119a7,7,0,0,1,.28,1.75c.2,4.4.16,8.8.19,13.2q.06,9.27.09,18.54a4.63,4.63,0,0,0,.56,2.39,1.54,1.54,0,0,0,2,.76,1.52,1.52,0,0,0,.76-.76,4.5,4.5,0,0,0,.54-2.33c0-5.47,0-10.93-.09-16.4,0-2.51-.12-5,0-7.52a5,5,0,0,1,.65-2.09,3.7,3.7,0,0,1,3.88-2,3.84,3.84,0,0,1,3.41,2.71,6.35,6.35,0,0,1,.31,2.16v20.81Z"/><path class="cls-2" d="M97.48,122.71v40.92c0,2.24-.32,2.59-2.55,2.45-1.38-.09-2.74,0-4.11,0s-1.84-.3-2-1.76V129.83a10.62,10.62,0,0,0-1.56-6.09,8.18,8.18,0,0,0-8.62-3.59c-2,.41-2,.4-2.34-1.56A8.28,8.28,0,0,0,66.64,112l-.46.1a3.42,3.42,0,0,1-4-1.28c-2-2.59-4.83-3.26-8-2.59A7.55,7.55,0,0,0,48,113.91c-.07.23-.12.46-.2.68a1.66,1.66,0,0,1-2,1.28h0a10.51,10.51,0,0,0-4.29.18,8.23,8.23,0,0,0-6,7.63c-.12,5.06,0,10.13.06,15.19v7.53c0,1.84-.07,3.69.1,5.53,0,.36,0,.72-.45.87s-.71-.09-1-.38c-1.62-1.72-3.2-3.49-4.92-5.11a15.14,15.14,0,0,0-5.49-3.44,6.71,6.71,0,0,0-8.64,3.93c-.07.22-.14.43-.2.65a11.45,11.45,0,0,0,.2,6.09A38.21,38.21,0,0,0,19,163.59c.2.38.41.75.6,1.13.44.9.26,1.2-.75,1.22H9.32c-1.15,0-1.48-.33-1.49-1.48q0-9.47,0-18.84V133.9q-.06-11-.15-22.08c0-3.25-.06-6.49-.08-9.73,0-1.39.36-1.85,1.76-1.93,1.61-.09,3.22-.07,4.83-.06,12.66.13,25.33.09,38,0,14.2-.06,28.41,0,42.61,0,.5,0,1,0,1.49.09.79.07,1.09.36,1.18,1.15a8.34,8.34,0,0,1,0,1v20.38Z"/><path class="cls-2" d="M157.67,119.61a10.49,10.49,0,0,1,4.15-3.52c5.67-2.61,14.12-1.6,17.84,6.79a21.93,21.93,0,0,1,1.53,10.92,18.66,18.66,0,0,1-3.17,9.29,14.29,14.29,0,0,1-15.44,5.69,10.16,10.16,0,0,1-5.72-4.08l-.44-.64-.13-.1c-.12,1.23-.26,2.41-.32,3.59,0,.71-.22,1-1,1-2.42-.07-4.83,0-7.25,0-.41,0-.56-.06-.54-.54.43-15.38.1-30.77.2-46.16,0-1,0-1,1-1H157c.56,0,.71.13.71.7v18.06Zm0,12.54c0,1,0,2,0,3a6.26,6.26,0,0,0,6.38,6,6,6,0,0,0,5.68-3.79A13.26,13.26,0,0,0,170,127a6.15,6.15,0,0,0-5.77-4.23,6.25,6.25,0,0,0-6.35,5.26,24.67,24.67,0,0,0-.19,4.12Z"/><path class="cls-2" d="M129.55,145.29c-.35.3-.68.56-1,.86-3.83,3.73-11.22,4.21-15.42.93-3.2-2.49-4.23-5.89-3.68-9.79.63-4.47,3.45-7.17,7.44-8.82a28,28,0,0,1,9.77-1.89,9.48,9.48,0,0,1,1.41,0c.47.07.54-.2.52-.6a3.78,3.78,0,0,0-2.79-3.54,11.91,11.91,0,0,0-5.69-.25,19.3,19.3,0,0,0-6.59,2.25c-.61-2.14-1.21-4.23-1.82-6.31-.11-.4.21-.43.42-.54a24.08,24.08,0,0,1,7.69-2.35,26.16,26.16,0,0,1,9,.06,11.59,11.59,0,0,1,9.83,10.32,27.06,27.06,0,0,1,.29,3.82c0,4.85,0,9.7.06,14.55a22.37,22.37,0,0,0,.36,4c.08.44,0,.61-.51.61h-8.17c-.38,0-.53-.1-.59-.49C129.92,147.09,129.73,146.18,129.55,145.29Zm-.66-9.79v-2c0-.41-.14-.52-.53-.52a18,18,0,0,0-4.63.54,6.7,6.7,0,0,0-3.3,1.82c-1.55,1.65-1.52,5.73,1.69,6.51,3.82.93,7-2.19,6.76-5.09C128.86,136.35,128.89,135.92,128.89,135.5Z"/><path class="cls-2" d="M187.92,132V116.31c0-.59.16-.76.75-.75h8.88c.54,0,.66.15.66.68v31.6c0,.54-.14.66-.67.66h-8.87c-.59,0-.75-.13-.75-.73C187.93,142.52,187.92,137.27,187.92,132Z"/><path class="cls-2" d="M193,111.6a4.91,4.91,0,0,1-4.87-2.88,5.06,5.06,0,0,1,.65-5.54c1.69-2.12,5.47-2.48,7.75-.81A5.15,5.15,0,0,1,193,111.6Z"/><path class="cls-3" d="M149.35,160.1a2.87,2.87,0,0,1,2,2.28,3.16,3.16,0,0,1-2.54,3.68h-.06a13.4,13.4,0,0,1-3.52.14c-.39,0-.58-.18-.57-.62V155.45c0-.33,0-.52.44-.57a10.31,10.31,0,0,1,3.59,0,2.57,2.57,0,0,1,2.29,2.28,2.5,2.5,0,0,1-1.4,2.7,1.07,1.07,0,0,0-.16.14A.36.36,0,0,0,149.35,160.1Zm-2.4.63c-.69-.2-.85.17-.8.82s0,1.28,0,1.92c0,1.75.15,1.87,1.89,1.5a2.1,2.1,0,0,0,.14-4.09,3,3,0,0,0-1.18-.15Zm-.79-2.95v1.34c0,.18,0,.37.23.45a2.78,2.78,0,0,0,2.87-1.07c.66-1.3-.25-2.56-1.91-2.62-1.18,0-1.19,0-1.19,1.12Z"/><path class="cls-3" d="M195.37,159.43a3.31,3.31,0,0,1,.33,1.91,2.8,2.8,0,0,1-3.32,2.16l-.12,0a5,5,0,0,1-.55-.16c-.24-.09-.47-.11-.59.18a.57.57,0,0,0,.14.71,1.14,1.14,0,0,0,.73.23c.77,0,1.55.08,2.33.14a2.16,2.16,0,0,1,2.13,1.65,2.32,2.32,0,0,1-1.38,2.48,5.69,5.69,0,0,1-4.27.14,1.84,1.84,0,0,1-1.3-2.25,1.87,1.87,0,0,1,.54-.89c.26-.3.37-.46,0-.8a1.59,1.59,0,0,1,0-2,.83.83,0,0,0,.05-1,2.65,2.65,0,0,1,1.22-3.54,2.61,2.61,0,0,1,1.13-.27c1.18,0,2.35.24,3.54.14.41,0,.53.25.52.59s-.12.56-.5.55Zm-2.49,6.24h-1c-.6.06-.78.56-.93,1a.82.82,0,0,0,.35,1,3.69,3.69,0,0,0,3.24-.1,1.09,1.09,0,0,0,.48-1c-.05-.42-.38-.62-.75-.76a4.33,4.33,0,0,0-1.39-.14Zm-.07-6.39a1.49,1.49,0,0,0-1.54,1.44v.13a1.51,1.51,0,0,0,1.46,1.56h.1a1.52,1.52,0,0,0,1.52-1.54v-.07a1.4,1.4,0,0,0-1.27-1.52Z"/><path class="cls-3" d="M115.38,154.76c.54-.16.78.19,1,.81q1.47,5,3,9.89c.16.51.07.65-.47.67a1,1,0,0,1-1.19-.83c-.19-.72-.43-1.39-.63-2.1a.62.62,0,0,0-.68-.53H114a.57.57,0,0,0-.67.45.13.13,0,0,0,0,.06c-.22.82-.49,1.63-.74,2.44-.13.41-1.22.72-1.52.43-.14-.14,0-.3,0-.46,1.06-3.45,2.14-6.89,3.18-10.35C114.4,154.63,114.83,154.8,115.38,154.76Zm-.24,1.64a41.07,41.07,0,0,1-1.25,4.5c-.12.39-.09.57.37.55h1.91c.35,0,.47-.08.34-.45s-.32-1-.47-1.55C115.75,158.49,115.47,157.53,115.14,156.4Z"/><path class="cls-3" d="M182.72,159.07a2.85,2.85,0,0,1,2.65-1.24,2.58,2.58,0,0,1,2.4,2.71c.07,1.7,0,3.4,0,5.11,0,.73-.53.41-.86.46s-.7,0-.69-.51v-4.12a4.71,4.71,0,0,0,0-.92c-.16-.91-.65-1.41-1.39-1.44a1.75,1.75,0,0,0-1.84,1.34,4.51,4.51,0,0,0-.15,1.27v3.83c0,.68-.4.55-.78.55s-.79.09-.78-.57v-7c0-.41.1-.64.55-.57s.88-.22.85.49C182.68,158.66,182.7,158.87,182.72,159.07Z"/><path class="cls-3" d="M122.62,159.07a2.87,2.87,0,0,1,2.64-1.24,2.62,2.62,0,0,1,2.42,2.77v5c0,.67-.46.46-.79.48s-.78.15-.76-.5v-4.12a7.06,7.06,0,0,0,0-.92c-.16-.91-.65-1.41-1.39-1.45a1.75,1.75,0,0,0-1.85,1.33,4.72,4.72,0,0,0-.15,1.12v4.05c0,.59-.35.52-.7.49s-.85.23-.85-.49V158.5c0-.42.15-.58.54-.51s.88-.24.85.47C122.58,158.63,122.6,158.77,122.62,159.07Z"/><path class="cls-3" d="M207.43,159.06a2.9,2.9,0,0,1,2.63-1.23,2.6,2.6,0,0,1,2.43,2.75c.06,1.68,0,3.36,0,5,0,.67-.44.48-.78.49s-.79.17-.77-.49v-4.05a7.06,7.06,0,0,0,0-.92c-.13-.93-.64-1.49-1.39-1.53a1.77,1.77,0,0,0-1.88,1.39,6.3,6.3,0,0,0-.13,1.62v3.48c0,.57-.33.54-.69.5s-.86.25-.86-.48v-7.17c0-.4.2-.51.52-.44s.82-.28.86.39Z"/><path class="cls-3" d="M159.52,162.21a26.85,26.85,0,0,0,.08,3.53c0,.31-.11.42-.35.36s-.89.3-1-.32-.31-.41-.61-.15a2.56,2.56,0,0,1-3.61,0,2.58,2.58,0,0,1-.72-1.42,29.53,29.53,0,0,1-.14-5.87c0-.67.68-.24,1-.34s.48.14.48.49v4.19a3.74,3.74,0,0,0,.1,1c.28,1.07.74,1.43,1.75,1.32a1.73,1.73,0,0,0,1.44-1.68v-4.61c0-.65.26-.71.79-.71s.8.1.77.73C159.49,159.81,159.52,160.9,159.52,162.21Z"/><path class="cls-3" d="M240.89,165.26a2.9,2.9,0,0,1-2.53,1.07,2.45,2.45,0,0,1-2.23-2.22,28,28,0,0,1-.14-4.39v-.78c0-.91.33-1.14,1.25-.93.36.09.28.34.28.55v4.12a3.74,3.74,0,0,0,.1,1c.27,1.08.72,1.44,1.73,1.34a1.73,1.73,0,0,0,1.46-1.73v-4.54c0-.62.21-.75.78-.73s.79,0,.79.71c0,2.36-.12,4.72.07,7.08,0,.28-.14.36-.34.32s-.78.24-1-.24C241,165.71,241.1,165.49,240.89,165.26Z"/><path class="cls-3" d="M253.61,162.38h-1.85c-.62,0-.67.24-.61.73a2.45,2.45,0,0,0,2.8,2l.2,0a5.84,5.84,0,0,0,.83-.18c.32-.1.61-.18.71.27s.1.73-.43.86a6.1,6.1,0,0,1-2.94.16,3.42,3.42,0,0,1-2.65-3.08,5.2,5.2,0,0,1,.75-3.88,3.13,3.13,0,0,1,3.11-1.4,2.76,2.76,0,0,1,2.5,2.35,6.19,6.19,0,0,1,.23,1.6c0,.43-.16.6-.59.59C255,162.37,254.3,162.38,253.61,162.38Zm-.79-1.12h1.48c.23,0,.4,0,.44-.33a1.87,1.87,0,0,0-1.32-1.94c-.95-.21-1.65.22-2.12,1.32-.37.88-.33.95.6.95Z"/><path class="cls-3" d="M172.68,164.2c.56-1.91,1.11-3.76,1.66-5.61a1.27,1.27,0,0,1,1.56-.54c.16.11.09.25,0,.37a88.93,88.93,0,0,1-3.29,8.82,4.74,4.74,0,0,1-2.27,2.36c-.21.09-.56.38-.68-.1s-.55-.77,0-1.11a4.81,4.81,0,0,0,1.74-1.73,1.59,1.59,0,0,0,.14-1.48c-.81-2.16-1.57-4.35-2.38-6.52-.21-.54-.11-.63.46-.67.76-.06,1.07.21,1.28.92C171.5,160.67,172.1,162.4,172.68,164.2Z"/><path class="cls-3" d="M217.92,164a1.24,1.24,0,0,0-.64-1c-.52-.28-1.06-.53-1.55-.85a2.12,2.12,0,0,1-1-2.71,2.65,2.65,0,0,1,2.76-1.56,5.71,5.71,0,0,1,1,.2c.62.13.73.43.47,1-.18.4-.34.36-.62.2a2.07,2.07,0,0,0-1.17-.23.92.92,0,0,0-1,.72,1,1,0,0,0,.48,1.23c.43.24.89.44,1.32.68a2.42,2.42,0,0,1-.81,4.65,4.8,4.8,0,0,1-2.28-.28c-.67-.21-.29-.64-.22-1s.38-.29.65-.16a2.91,2.91,0,0,0,1.59.27A1.17,1.17,0,0,0,217.92,164Z"/><path class="cls-3" d="M130.27,161.94v-2.27c0-.39-.11-.58-.52-.53s-.67,0-.66-.55.18-.64.62-.58.61-.12.56-.55a3.09,3.09,0,0,1,0-.43c0-1,.13-1.12,1.07-1.24.24,0,.37,0,.37.27v.21c0,.54-.15,1.2.11,1.59s1,.12,1.47.14.38.31.39.59,0,.59-.42.55h-.07c-1.48.09-1.48.09-1.48,1.56v2.77c0,1.26.22,1.47,1.5,1.52.32,0,.34.21.32.43s.17.67-.32.81a2.14,2.14,0,0,1-2.78-1.17,2.23,2.23,0,0,1-.15-.92v-2.2Z"/><path class="cls-3" d="M221.62,162v-2.27c0-.42-.11-.63-.56-.57s-.62-.09-.63-.58.25-.59.65-.55.57-.11.53-.51a8.32,8.32,0,0,1,0-1c0-.34.07-.4.35-.51,1-.38,1.09-.37,1.09.74,0,1.27,0,1.28,1.25,1.28.38,0,.73-.08.74.54s-.33.6-.75.6c-1.24,0-1.24,0-1.24,1.23v3.26c0,1.09.31,1.38,1.45,1.36.3,0,.38.13.36.38s.19.72-.35.86a2.13,2.13,0,0,1-2.76-1.2,2,2,0,0,1-.14-1V162Z"/><path class="cls-3" d="M233.27,166.28c-1.48,0-2.22-.68-2.26-2.08s0-2.88,0-4.32c0-.5,0-.85-.67-.74-.42.07-.51-.18-.5-.55s0-.65.47-.57c.66.1.76-.25.7-.78a2.94,2.94,0,0,1,0-.42,1.08,1.08,0,0,1,1.15-1h.07c.15,0,.21.09.22.22v.28c0,.54-.21,1.2.1,1.59s1,.12,1.48.14.41.25.38.52.13.62-.35.62h-.14c-1.47.08-1.47.08-1.47,1.56v2.91c0,1.16.32,1.44,1.42,1.39.28,0,.42.08.39.35s.21.76-.33.87A4.85,4.85,0,0,1,233.27,166.28Z"/><path class="cls-3" d="M245.06,161.92v-2.2c0-.4-.08-.64-.54-.58s-.65-.06-.65-.56.22-.63.64-.57.59-.16.54-.57V157c0-.94.17-1.12,1.09-1.22.25,0,.35,0,.35.29v.28c0,.51-.21,1.14.1,1.51s.93.13,1.42.13.46.21.45.53,0,.62-.44.62-1.13-.23-1.42.13-.1,1-.11,1.58v2.77c0,1.15.32,1.41,1.44,1.37.29,0,.4.11.37.36s.2.73-.33.87a2.13,2.13,0,0,1-2.92-2.11v-2.2Z"/><path class="cls-3" d="M202,160.43v-5c0-.68.34-.62.79-.63s.78,0,.77.66v10.07c0,.69-.35.62-.79.63s-.79,0-.77-.65C202.05,163.79,202,162.11,202,160.43Z"/><path class="cls-3" d="M167.49,160.16v5.39c0,.6-.3.58-.7.57s-.77.06-.77-.59V154.88c0-.67.4-.54.79-.57s.69,0,.68.59C167.47,156.65,167.49,158.4,167.49,160.16Z"/><path class="cls-3" d="M163.51,160.23v5.32c0,.59-.3.58-.71.57s-.77.06-.77-.59V154.88c0-.67.4-.54.79-.57s.7,0,.69.59C163.49,156.67,163.51,158.45,163.51,160.23Z"/><path class="cls-3" d="M136.8,162.06v3.55c0,.59-.34.52-.69.5s-.78.16-.77-.5v-7.1c0-.65.42-.48.77-.49s.71-.09.69.49C136.78,159.69,136.8,160.88,136.8,162.06Z"/><path class="cls-3" d="M179,162.06v3.55c0,.59-.35.51-.7.5s-.77.16-.77-.5v-7.1c0-.65.43-.48.78-.49s.71-.09.69.49Z"/><path class="cls-3" d="M228.16,162.06v3.55c0,.59-.35.52-.7.5s-.77.16-.77-.5v-7.1c0-.65.43-.48.77-.49s.71-.09.7.49C228.13,159.69,228.16,160.88,228.16,162.06Z"/><path class="cls-3" d="M140.75,162.24h-1.56c-.56,0-.53-.24-.53-.62s.08-.59.5-.59h3.18c.5,0,.41.33.42.63s0,.61-.46.59S141.26,162.24,140.75,162.24Z"/><path class="cls-3" d="M137,155.83a.83.83,0,0,1-.77.89h-.1a.94.94,0,0,1-.95-.93h0a.91.91,0,0,1,.89-.91h.11A.84.84,0,0,1,137,155.83Z"/><path class="cls-3" d="M178.24,156.73a.9.9,0,0,1-.89-.91h0a.88.88,0,0,1,.83-.93h.17a.85.85,0,0,1,.87.83,1,1,0,0,1,0,.17.85.85,0,0,1-.83.85Z"/><path class="cls-3" d="M228.32,155.81a.84.84,0,0,1-.75.91h-.11a.94.94,0,0,1-1-.88v0a.91.91,0,0,1,.91-.91h.09A.85.85,0,0,1,228.32,155.81Z"/></svg>